<svg width="544" height="544" viewBox="0 0 544 544" fill="none" xmlns="http://www.w3.org/2000/svg">
<circle cx="272" cy="272" r="271.5" fill="white" stroke="black"/>
<path fill-rule="evenodd" clip-rule="evenodd" d="M244.265 120.725C230.938 106.724 208.784 106.178 194.783 119.505L59.8687 247.928C45.8677 261.255 45.3216 283.409 58.649 297.41L187.072 432.324C200.399 446.325 222.553 446.871 236.554 433.544L371.468 305.121C385.469 291.794 386.015 269.64 372.688 255.639L244.265 120.725ZM244.274 171.414C230.946 157.413 208.792 156.867 194.791 170.195L110.558 250.375C96.5571 263.703 96.011 285.857 109.338 299.858L189.519 384.091C202.846 398.092 225 398.638 239.001 385.31L323.234 305.13C337.235 291.803 337.782 269.649 324.454 255.648L244.274 171.414Z" fill="url(#paint0_linear_11_4)"/>
<path fill-rule="evenodd" clip-rule="evenodd" d="M356.204 110.869C342.877 96.8677 320.723 96.3216 306.722 109.649L171.808 238.072C157.807 251.399 157.261 273.553 170.588 287.554L299.011 422.468C312.339 436.469 334.493 437.015 348.494 423.688L483.407 295.265C497.408 281.938 497.955 259.784 484.627 245.783L356.204 110.869ZM356.213 161.558C342.886 147.557 320.732 147.011 306.731 160.338L222.498 240.519C208.497 253.846 207.95 276 221.278 290.001L301.458 374.235C314.786 388.236 336.94 388.782 350.941 375.454L435.174 295.274C449.175 281.946 449.721 259.792 436.394 245.791L356.213 161.558Z" fill="url(#paint1_linear_11_4)"/>
<defs>
<linearGradient id="paint0_linear_11_4" x1="375.277" y1="251.956" x2="40.9261" y2="269.019" gradientUnits="userSpaceOnUse">
<stop stop-color="#020024"/>
<stop offset="1" stop-color="#090979"/>
</linearGradient>
<linearGradient id="paint1_linear_11_4" x1="487.217" y1="242.1" x2="152.866" y2="259.162" gradientUnits="userSpaceOnUse">
<stop stop-color="#020024"/>
<stop offset="1" stop-color="#090979"/>
</linearGradient>
</defs>
</svg>
