<svg width="645" height="500" viewBox="0 0 645 500" fill="none" xmlns="http://www.w3.org/2000/svg">
<path fill-rule="evenodd" clip-rule="evenodd" d="M273.3 24.8687C259.973 10.8677 237.819 10.3216 223.818 23.649L10.8687 226.352C-3.13228 239.68 -3.67842 261.834 9.64897 275.835L212.352 488.784C225.68 502.785 247.834 503.331 261.835 490.004L474.784 287.3C488.785 273.973 489.331 251.819 476.004 237.818L273.3 24.8687ZM273.313 96.8687C259.985 82.8677 237.831 82.3216 223.83 95.649L82.8687 229.829C68.8677 243.156 68.3217 265.31 81.649 279.311L215.829 420.273C229.156 434.274 251.31 434.82 265.311 421.492L406.273 287.313C420.274 273.985 420.82 251.831 407.492 237.83L273.313 96.8687Z" fill="url(#paint0_linear_4_82)"/>
<path fill-rule="evenodd" clip-rule="evenodd" d="M432.3 10.8687C418.973 -3.13231 396.819 -3.6784 382.818 9.64899L169.869 212.352C155.868 225.68 155.322 247.834 168.649 261.835L371.352 474.784C384.68 488.785 406.834 489.331 420.835 476.004L633.784 273.3C647.785 259.973 648.331 237.819 635.004 223.818L432.3 10.8687ZM432.313 82.8687C418.985 68.8677 396.831 68.3216 382.83 81.649L241.869 215.829C227.868 229.156 227.322 251.31 240.649 265.311L374.829 406.273C388.156 420.274 410.31 420.82 424.311 407.492L565.273 273.313C579.274 259.985 579.82 237.831 566.492 223.83L432.313 82.8687Z" fill="url(#paint1_linear_4_82)"/>
<defs>
<linearGradient id="paint0_linear_4_82" x1="475.367" y1="221.032" x2="-11.7631" y2="245.891" gradientUnits="userSpaceOnUse">
<stop stop-color="#020024"/>
<stop offset="1" stop-color="#090979"/>
</linearGradient>
<linearGradient id="paint1_linear_4_82" x1="634.367" y1="207.032" x2="147.237" y2="231.891" gradientUnits="userSpaceOnUse">
<stop stop-color="#020024"/>
<stop offset="1" stop-color="#090979"/>
</linearGradient>
</defs>
</svg>
